<?xml version="1.0" encoding="UTF-8" standalone="no"?>
<!-- Created with Inkscape (http://www.inkscape.org/) -->

<svg
   xmlns:dc="http://purl.org/dc/elements/1.1/"
   xmlns:cc="http://creativecommons.org/ns#"
   xmlns:rdf="http://www.w3.org/1999/02/22-rdf-syntax-ns#"
   xmlns:svg="http://www.w3.org/2000/svg"
   xmlns="http://www.w3.org/2000/svg"
   xmlns:sodipodi="http://sodipodi.sourceforge.net/DTD/sodipodi-0.dtd"
   xmlns:inkscape="http://www.inkscape.org/namespaces/inkscape"
   width="512"
   height="512"
   viewBox="0 0 135.46666 135.46667"
   version="1.1"
   id="svg8"
   inkscape:version="0.92.3 (2405546, 2018-03-11)"
   sodipodi:docname="icon.svg"
   inkscape:export-filename="/home/ashwek/AndroidStudioProjects/PasswordGenerator/media/icon.png"
   inkscape:export-xdpi="96"
   inkscape:export-ydpi="96">
  <defs
     id="defs2" />
  <sodipodi:namedview
     id="base"
     pagecolor="#ffffff"
     bordercolor="#666666"
     borderopacity="1.0"
     inkscape:pageopacity="0.0"
     inkscape:pageshadow="2"
     inkscape:zoom="0.70710678"
     inkscape:cx="246.54147"
     inkscape:cy="267.81107"
     inkscape:document-units="px"
     inkscape:current-layer="layer10"
     showgrid="false"
     units="px"
     inkscape:window-width="1366"
     inkscape:window-height="704"
     inkscape:window-x="0"
     inkscape:window-y="27"
     inkscape:window-maximized="1"
     inkscape:snap-global="true"
     showguides="true"
     inkscape:guide-bbox="true" />
  <metadata
     id="metadata5">
    <rdf:RDF>
      <cc:Work
         rdf:about="">
        <dc:format>image/svg+xml</dc:format>
        <dc:type
           rdf:resource="http://purl.org/dc/dcmitype/StillImage" />
        <dc:title />
      </cc:Work>
    </rdf:RDF>
  </metadata>
  <g
     inkscape:label="BG"
     inkscape:groupmode="layer"
     id="layer1"
     transform="translate(0,-161.53331)"
     style="display:inline"
     sodipodi:insensitive="true">
    <rect
       style="opacity:1;fill:#002aff;fill-opacity:1;stroke:none;stroke-width:9.72747517;stroke-linecap:round;stroke-linejoin:round;stroke-miterlimit:4;stroke-dasharray:none;stroke-dashoffset:0;stroke-opacity:1"
       id="rect10"
       width="135.46666"
       height="135.46666"
       x="0"
       y="161.53331" />
  </g>
  <g
     style="display:none"
     inkscape:label="Star Orignal"
     id="g46"
     inkscape:groupmode="layer"
     sodipodi:insensitive="true">
    <g
       id="g44">
      <path
         id="path42"
         transform="scale(0.26458333)"
         d="M 241,66 V 219.78711 L 132.25586,111.04297 111.04297,132.25586 219.78711,241 H 66 v 30 H 219.78711 L 111.04297,379.74414 132.25586,400.95703 241,292.21289 V 446 h 30 V 292.21289 L 379.74414,400.95703 400.95703,379.74414 292.21289,271 H 446 V 241 H 292.21289 L 400.95703,132.25586 379.74414,111.04297 271,219.78711 V 66 Z"
         style="opacity:1;fill:#ff00ff;fill-opacity:1;stroke:none;stroke-width:36.51483917;stroke-linecap:round;stroke-linejoin:round;stroke-miterlimit:4;stroke-dasharray:none;stroke-dashoffset:0;stroke-opacity:1"
         inkscape:connector-curvature="0" />
    </g>
  </g>
  <g
     inkscape:groupmode="layer"
     id="layer3"
     inkscape:label="Key1"
     style="display:none"
     sodipodi:insensitive="true">
    <path
       style="fill:#ffffff;stroke-width:0.45920929"
       d="m 119.78629,66.034257 -1.78212,-2.269674 H 90.487499 l -0.012,7.9364 c 1.982882,0.0011 6.292765,0.07567 8.125193,-0.891725 0.176645,-0.09803 0.91059,-0.76262 1.529978,-0.797058 0.94593,-0.05257 1.22756,0.128469 1.75996,1.13149 0.94727,1.784355 2.31384,1.864076 3.23502,0.188695 0.59931,-1.089955 1.04629,-1.363472 2.18095,-1.334562 1.28158,0.03263 1.47925,0.163996 1.93779,1.287753 0.61111,1.497683 1.74153,1.773285 2.40519,0.586433 0.88661,-1.585491 1.69109,-1.720909 2.39106,-0.402387 0.57118,1.075911 0.74905,1.161725 2.27042,1.095249 1.22456,-0.05351 1.93758,-0.435543 2.76202,-1.479897 0.61124,-0.774286 1.42541,-1.730847 1.80925,-2.125695 0.59779,-0.614931 0.44057,-1.034521 -1.09608,-2.924969 z"
       id="path846"
       inkscape:connector-curvature="0"
       sodipodi:nodetypes="cccccccsccccccccc" />
  </g>
  <g
     inkscape:groupmode="layer"
     id="layer8"
     inkscape:label="Key 1 Star"
     style="display:none"
     sodipodi:insensitive="true">
    <path
       style="display:inline;fill:#ffffff;stroke-width:1.73559415"
       d="m 258.00195,53.927734 c -1.65991,0.132912 -3.95233,1.725587 -8.41797,5.355469 l -8.57812,6.736328 v 101.999999 1.96094 h -0.01 v 49.78711 21.22656 H 219.80641 168.0193 v 0.008 c -8.0488,-0.0204 -22.24515,-0.0215 -28.66406,3.36719 -0.66764,0.37051 -3.44222,2.88156 -5.7832,3.01172 -3.57517,0.19869 -4.63819,-0.48445 -6.65039,-4.27539 -3.58025,-6.74402 -8.7469,-7.04699 -12.22852,-0.71485 -2.26511,4.11952 -3.95371,5.15419 -8.24219,5.04493 -4.84377,-0.12333 -5.59115,-0.61992 -7.324217,-4.86719 -1.299212,-3.18405 -3.217924,-4.90629 -5.095703,-5.00586 -1.460493,-0.0774 -2.896751,0.82655 -3.994141,2.78906 -3.35097,5.99241 -6.391557,6.50488 -9.037109,1.52149 -2.158791,-4.06644 -2.83199,-4.39189 -8.582031,-4.14063 -4.628296,0.20224 -7.321507,1.64658 -10.4375,5.59375 -2.310199,2.92643 -5.38911,6.54282 -6.839844,8.03516 -2.259364,2.32415 -1.665233,3.90967 4.142578,11.05469 l 6.736328,8.57812 h 101.999999 1.96094 v 0.01 h 49.78711 21.22851 v 21.18945 51.78711 h 0.008 c -0.0204,8.0488 -0.0215,22.24515 3.36718,28.66406 0.37051,0.66764 2.88156,3.44221 3.01172,5.7832 0.19869,3.57517 -0.48445,4.63817 -4.27539,6.65039 -6.74402,3.58024 -7.04698,8.7469 -0.71484,12.22852 4.11952,2.26511 5.15418,3.95371 5.04492,8.24219 -0.12333,4.84377 -0.61992,5.59111 -4.86719,7.32422 -5.66054,2.3097 -6.70253,6.58152 -2.21679,9.08984 5.9924,3.35097 6.50487,6.39159 1.52148,9.03711 -4.06644,2.15879 -4.39188,2.83197 -4.14062,8.58203 0.20224,4.62826 1.64658,7.32151 5.59374,10.4375 2.92644,2.3102 6.54282,5.38907 8.03516,6.83985 2.32415,2.25932 3.90968,1.66523 11.05469,-4.14258 l 8.57812,-6.73633 v -102 -1.96094 h 0.01 v -49.78711 -21.22851 h 21.1875 51.78711 v -0.008 c 8.0488,0.0204 22.24515,0.0215 28.66406,-3.36718 0.66764,-0.37051 3.44221,-2.88156 5.7832,-3.01172 3.57517,-0.19869 4.63817,0.48445 6.65039,4.27539 3.58024,6.74402 8.7469,7.04698 12.22852,0.71484 2.26511,-4.11952 3.95371,-5.15418 8.24219,-5.04492 4.84377,0.12333 5.59111,0.61992 7.32422,4.86719 2.3097,5.66054 6.58152,6.70253 9.08984,2.21679 3.35097,-5.9924 6.39159,-6.50487 9.03711,-1.52148 2.15879,4.06644 2.83197,4.39188 8.58203,4.14062 4.62826,-0.20224 7.32151,-1.64658 10.4375,-5.59374 2.3102,-2.92644 5.38907,-6.54282 6.83985,-8.03516 2.25932,-2.32415 1.66523,-3.90968 -4.14258,-11.05469 l -6.73633,-8.57812 h -102 -1.96094 v -0.01 H 292.2326 271.00604 v -21.1875 -51.78711 h -0.008 c 0.0204,-8.0488 0.0215,-22.24515 -3.36719,-28.66406 -0.37051,-0.66764 -2.88156,-3.44222 -3.01172,-5.7832 -0.19869,-3.57517 0.48445,-4.63819 4.27539,-6.65039 6.74402,-3.58025 7.04699,-8.7469 0.71485,-12.22852 -4.11952,-2.26511 -5.15419,-3.95371 -5.04493,-8.24219 0.12333,-4.84377 0.61992,-5.59115 4.86719,-7.324217 3.18405,-1.299212 4.90629,-3.217924 5.00586,-5.095703 0.0774,-1.460493 -0.82655,-2.896751 -2.78906,-3.994141 -5.99241,-3.35097 -6.50488,-6.391557 -1.52149,-9.037109 4.06644,-2.158791 4.39189,-2.83199 4.14063,-8.582031 -0.20224,-4.628296 -1.64658,-7.321507 -5.59375,-10.4375 -2.92643,-2.310199 -6.54282,-5.38911 -8.03516,-6.839844 -0.87156,-0.847261 -1.64077,-1.292637 -2.63672,-1.212891 z"
       transform="scale(0.26458333)"
       id="path331"
       inkscape:connector-curvature="0" />
    <g
       style="display:inline"
       id="g339" />
  </g>
  <g
     inkscape:groupmode="layer"
     id="layer4"
     inkscape:label="Key 2"
     style="display:none"
     sodipodi:insensitive="true">
    <path
       style="fill:#ffffff;stroke-width:0.43941262"
       d="m 18.620051,62.218706 2.048118,-0.002 v 1.548373 L 17.4625,63.764583 v 7.937499 l 28.643197,-4.06e-4 V 63.76656 c -3.5e-5,-0.0015 -18.251165,-0.0015 -18.251165,-0.0015 l 9.8e-5,-1.546354 h 2.363642 v -5.552367 l -2.363642,3e-6 h -3.331769 l -0.08887,1.317477 c -0.08593,1.171553 -0.283337,1.523775 -0.840893,1.500344 -0.557558,-0.02343 -0.725062,-0.358782 -0.71352,-1.428441 l 0.01512,-1.38938 -4.276704,-7.49e-4 z"
       id="path881"
       inkscape:connector-curvature="0"
       sodipodi:nodetypes="ccccccccccccccscccc" />
  </g>
  <g
     inkscape:groupmode="layer"
     id="layer9"
     inkscape:label="Key 2 Start"
     style="display:none"
     sodipodi:insensitive="true">
    <g
       style="display:inline"
       id="g364"
       transform="rotate(45,67.729323,67.731633)">
      <path
         style="opacity:1;fill:#ffffff;fill-opacity:1;stroke:none;stroke-width:36.51483917;stroke-linecap:round;stroke-linejoin:round;stroke-miterlimit:4;stroke-dasharray:none;stroke-dashoffset:0;stroke-opacity:1"
         d="m 154.30664,95.167969 -14.83594,14.847651 5.48047,5.4668 -4.13867,4.13672 -8.56445,-8.56641 -21.21485,21.21289 73.54102,73.53711 v 0.002 l 35.20312,35.20508 14.99024,14.99023 -14.99024,14.99023 -36.61914,36.61915 0.0234,0.0234 c -7.17632,7.17044 -44.35547,44.34766 -44.35547,44.34766 l -4.13086,-4.13281 6.31641,-6.31641 -14.83984,-14.83984 -6.31641,6.31836 -8.9043,8.90234 3.28516,3.75977 c 2.90145,3.36058 3.31247,4.83033 1.75976,6.25781 -1.55271,1.42748 -2.8948,0.97742 -5.72265,-1.91211 l -3.67383,-3.75391 -11.431641,11.42969 14.847651,14.83594 5.4668,-5.48047 4.13672,4.13867 -8.56641,8.56445 21.21289,21.21485 73.53711,-73.54102 h 0.002 L 241.00977,292.22266 256,277.23242 l 14.99023,14.99024 36.61915,36.61914 0.0234,-0.0254 c 7.17044,7.17632 44.34766,44.35742 44.34766,44.35742 l -4.13086,4.13086 -6.31836,-6.31641 -14.83984,14.83984 6.31836,6.31641 8.90234,8.9043 3.75977,-3.28516 c 3.36066,-2.90136 4.83034,-3.31246 6.25781,-1.75976 1.42747,1.5527 0.97742,2.89481 -1.91211,5.72265 l -3.75196,3.67383 11.42774,11.43164 14.83594,-14.84765 -5.48047,-5.4668 4.13867,-4.13867 8.56445,8.56836 21.21485,-21.21289 -73.54102,-73.53711 v -0.002 L 292.22266,270.99023 277.23242,256 l 14.99024,-14.99023 36.61914,-36.61915 -0.0254,-0.0234 c 7.17632,-7.17044 44.35742,-44.34766 44.35742,-44.34766 l 4.13086,4.13086 -6.31641,6.31836 14.83984,14.83984 6.31641,-6.31836 8.9043,-8.90234 -3.28516,-3.75977 c -2.90136,-3.36066 -3.31246,-4.83034 -1.75976,-6.25781 1.5527,-1.42747 2.89481,-0.97742 5.72265,1.91211 l 3.67383,3.75196 11.43164,-11.42774 -14.84765,-14.83594 -5.4668,5.48047 -4.13867,-4.13867 8.56836,-8.56445 -21.21289,-21.21485 -73.53711,73.54102 h -0.002 L 270.99023,219.77734 256,234.76758 241.00977,219.77734 204.39062,183.1582 l -0.0234,0.0234 c -7.17044,-7.17632 -44.34766,-44.35547 -44.34766,-44.35547 l 4.13281,-4.13086 6.31641,6.31641 14.83984,-14.83984 -6.31836,-6.31641 -8.90234,-8.9043 -3.75977,3.28516 c -3.36058,2.90145 -4.83033,3.31247 -6.25781,1.75976 -1.42748,-1.55271 -0.97742,-2.8948 1.91211,-5.72265 l 3.75391,-3.67383 z"
         transform="matrix(0.18708867,-0.18708867,0.18708867,0.18708867,-28.056038,67.73)"
         id="path362"
         inkscape:connector-curvature="0" />
    </g>
    <g
       transform="rotate(135,67.732656,67.731661)"
       id="g394"
       style="display:inline" />
  </g>
  <g
     inkscape:groupmode="layer"
     id="layer10"
     inkscape:label="Combine"
     style="display:inline"
     sodipodi:insensitive="true">
    <path
       style="display:inline;fill:#ffffff;stroke-width:0.39766791"
       d="m 68.192062,21.434502 c -0.380303,0.02763 -0.905579,0.395132 -1.928767,1.227026 l -1.965461,1.543498 v 23.370777 0.449474 h -0.0023 v 11.406586 l -8.387229,-8.387285 -0.0053,0.0053 C 54.260025,49.405658 45.741794,40.887031 45.741794,40.887031 l 0.946934,-0.946474 1.447249,1.44725 3.400174,-3.400249 -1.447692,-1.447248 -2.039752,-2.040131 -0.86146,0.7525 c -0.77,0.664999 -1.106755,0.758947 -1.43382,0.403421 -0.327066,-0.355527 -0.224,-0.663158 0.438144,-1.31121 l 0.860079,-0.841842 -2.618828,-2.619289 -3.399281,3.401907 1.255707,1.252631 -0.948269,0.947763 -1.962329,-1.962763 -4.860853,4.860392 16.850087,16.849268 v 4.6e-4 l 8.062328,8.062706 H 47.574789 v 0.0018 c -1.844177,-0.0046 -5.096919,-0.0049 -6.567654,0.771842 -0.152987,0.0829 -0.788697,0.660395 -1.325072,0.689868 -0.819184,0.04605 -1.062728,-0.111447 -1.52377,-0.979539 -0.82029,-1.545249 -2.004136,-1.614696 -2.80186,-0.163947 -0.519013,0.943894 -0.905947,1.180973 -1.888497,1.15592 -1.109822,-0.02763 -1.281073,-0.141842 -1.678157,-1.115117 -0.297684,-0.729474 -0.737302,-1.124237 -1.167553,-1.146987 -0.334619,-0.01842 -0.663711,0.189737 -0.915158,0.63921 -0.767789,1.373013 -1.464464,1.490447 -2.070627,0.348158 -0.494605,-0.931736 -0.648881,-1.006342 -1.966362,-0.948776 -1.060454,0.04605 -1.67754,0.377632 -2.391485,1.281737 -0.529329,0.670526 -1.234781,1.499104 -1.567179,1.840999 -0.517724,0.532368 -0.381592,0.896183 0.949162,2.532893 l 1.543463,1.965525 h 23.370749 0.449289 v 0.0023 h 11.406577 l -8.38723,8.387193 0.0053,0.0053 c -1.644211,1.64306 -10.162884,10.161225 -10.162884,10.161225 l -0.946482,-0.946933 1.447249,-1.447249 -3.400184,-3.400156 -1.447249,1.447709 -2.040195,2.039763 0.752684,0.861184 c 0.664815,0.769999 0.758947,1.106736 0.403236,1.433801 -0.355802,0.326973 -0.663249,0.223815 -1.311201,-0.43842 l -0.841748,-0.860263 -2.619279,2.618827 3.40197,3.399237 1.252585,-1.255672 0.947818,0.948222 -1.962772,1.9624 4.860402,4.860843 16.849184,-16.850092 h 4.61e-4 l 8.06323,-8.062798 v 11.855875 h 0.0018 c -0.0046,1.844222 -0.0049,5.096918 0.771474,6.567652 0.08474,0.1529 0.66021,0.78843 0.690052,1.32512 0.04513,0.81882 -0.110987,1.06271 -0.979603,1.5237 -1.545221,0.82066 -1.614641,2.00421 -0.163764,2.801933 0.943886,0.51856 1.180955,0.90539 1.155921,1.88843 -0.02855,1.10987 -0.142026,1.28109 -1.115192,1.67816 -1.296969,0.5296 -1.535715,1.50803 -0.50796,2.08277 1.373013,0.76816 1.490428,1.46447 0.348618,2.07062 -0.931726,0.4946 -1.006285,0.64842 -0.948719,1.96635 0.04605,1.06041 0.377262,1.67752 1.281661,2.39151 0.670526,0.52961 1.499123,1.23477 1.841064,1.56718 0.532552,0.51763 0.895815,0.38131 2.532903,-0.94924 l 1.965461,-1.54341 V 87.892005 87.442532 h 0.0023 V 76.036498 l 8.386777,8.386732 0.0053,-0.0058 c 1.643019,1.644262 10.16125,10.163437 10.16125,10.163437 l -0.946482,0.94648 -1.447701,-1.44725 -3.400174,3.40016 1.447691,1.44725 2.039753,2.040213 0.86146,-0.75249 c 0.769999,-0.665003 1.106755,-0.758953 1.43382,-0.403423 0.327066,0.355523 0.224,0.663163 -0.438144,1.311203 l -0.859618,0.84184 2.618376,2.61929 3.39929,-3.402 -1.255716,-1.252533 0.948269,-0.94831 1.962338,1.963213 4.860845,-4.860383 -16.850088,-16.849181 v -4.6e-4 l -8.06278,-8.063259 h 11.855875 v -0.0018 c 1.844186,0.0046 5.096919,0.0049 6.567654,-0.771842 0.152987,-0.08289 0.788697,-0.660395 1.325081,-0.689868 0.819184,-0.04605 1.062729,0.110526 1.523761,0.979631 0.82029,1.545249 2.004146,1.614605 2.801877,0.163947 0.51901,-0.943894 0.90586,-1.180881 1.88848,-1.15592 1.10982,0.02763 1.28107,0.141842 1.67817,1.11521 0.52923,1.297026 1.50799,1.535762 2.0827,0.508421 0.76779,-1.373013 1.46449,-1.490447 2.07064,-0.349079 0.49461,0.931736 0.64888,1.006249 1.96636,0.948684 1.06044,-0.04605 1.67753,-0.377632 2.39149,-1.281645 0.52933,-0.670526 1.23477,-1.499104 1.56717,-1.841091 0.51763,-0.532368 0.3816,-0.896184 -0.94916,-2.532893 l -1.54348,-1.965385 H 87.891939 87.44265 v -0.0023 H 76.036488 l 8.386778,-8.386824 -0.0058,-0.0052 C 86.061717,54.260155 94.58084,45.741896 94.58084,45.741896 l 0.946483,0.946473 -1.44725,1.44771 3.400185,3.400157 1.447249,-1.447618 2.040193,-2.039762 -0.75268,-0.861184 c -0.664817,-0.77 -0.758949,-1.106737 -0.403238,-1.433802 0.355708,-0.326974 0.663248,-0.223816 1.311198,0.438421 l 0.84175,0.859341 2.61928,-2.618366 -3.40197,-3.399328 -1.252576,1.255763 -0.948278,-0.948315 1.963224,-1.962302 -4.860394,-4.860852 -16.849203,16.850096 h -4.51e-4 l -8.062788,8.062338 V 47.575158 h -0.0018 c 0.0046,-1.84413 0.0049,-5.096917 -0.771474,-6.567654 -0.08474,-0.152894 -0.66021,-0.78842 -0.690052,-1.325025 -0.04513,-0.818816 0.110987,-1.062711 0.979603,-1.523789 1.545221,-0.820657 1.614641,-2.004117 0.163763,-2.80184 -0.943885,-0.518553 -1.180954,-0.906316 -1.15592,-1.888526 0.02855,-1.109776 0.142026,-1.281091 1.115192,-1.678157 0.729564,-0.2975 1.124152,-0.736842 1.146967,-1.167526 0.0175,-0.334341 -0.189369,-0.664078 -0.639026,-0.915525 -1.373012,-0.768157 -1.490428,-1.464473 -0.348618,-2.070617 0.931726,-0.494605 1.006295,-0.649342 0.94872,-1.966355 -0.04605,-1.060499 -0.377263,-1.677604 -1.281662,-2.391512 -0.670568,-0.529604 -1.499146,-1.234762 -1.841078,-1.567169 -0.199684,-0.194342 -0.375973,-0.296579 -0.604118,-0.278158 z"
       id="path405"
       inkscape:connector-curvature="0" />
    <g
       transform="rotate(45,67.729324,67.731633)"
       id="g411"
       style="display:inline" />
  </g>
</svg>
